<svg version="1.1" xmlns="http://www.w3.org/2000/svg" viewBox="0 0 3429.124619094744 1476.4670977006829" width="3429.124619094744" height="1476.4670977006829">
  <!-- svg-source:excalidraw -->
  
  <defs>
    <style class="style-fonts">
      @font-face {
        font-family: "Virgil";
        src: url("https://excalidraw.com/Virgil.woff2");
      }
      @font-face {
        font-family: "Cascadia";
        src: url("https://excalidraw.com/Cascadia.woff2");
      }
    </style>
    
  </defs>
  <rect x="0" y="0" width="3429.124619094744" height="1476.4670977006829" fill="#ffffff"></rect><g stroke-linecap="round" transform="translate(2019.9870750438913 62.27273679892687) rotate(0 173.21350873569918 118.1872258747535)"><path d="M32 0 M32 0 C121.45 -2.46, 215.04 -1.58, 314.43 0 M32 0 C131.19 -4.71, 229.26 -4.07, 314.43 0 M314.43 0 C339.6 -0.97, 349.69 9.67, 346.43 32 M314.43 0 C331.98 1.59, 347.86 13.64, 346.43 32 M346.43 32 C349.74 86.14, 344.35 150.59, 346.43 204.37 M346.43 32 C346.76 96.62, 346 161.66, 346.43 204.37 M346.43 204.37 C349.03 225.02, 334.53 234.35, 314.43 236.37 M346.43 204.37 C348.63 229.05, 337.58 240.74, 314.43 236.37 M314.43 236.37 C204.63 236.56, 100.28 235.5, 32 236.37 M314.43 236.37 C242.5 237.77, 167.5 236.06, 32 236.37 M32 236.37 C9.55 238.03, -0.58 222.35, 0 204.37 M32 236.37 C11.5 232, 2.65 227.73, 0 204.37 M0 204.37 C-0.46 173.02, 0.26 135.4, 0 32 M0 204.37 C-2.7 164.79, -2.15 123.41, 0 32 M0 32 C1.66 8.49, 12.48 -1.08, 32 0 M0 32 C-2.49 11.59, 6.91 3.64, 32 0" stroke="#1e1e1e" stroke-width="1" fill="none"></path></g><g transform="translate(2061.9971517261874 149.0077364264771) rotate(0 134.0543975830078 32.18935801911641)"><text x="134.0543975830078" y="0" font-family="Virgil, Segoe UI Emoji" font-size="25.75148641529314px" fill="#1e1e1e" text-anchor="middle" style="white-space: pre;" direction="ltr" dominant-baseline="text-before-edge">Distributed/versioned</text><text x="134.0543975830078" y="32.189358019116426" font-family="Virgil, Segoe UI Emoji" font-size="25.75148641529314px" fill="#1e1e1e" text-anchor="middle" style="white-space: pre;" direction="ltr" dominant-baseline="text-before-edge">configuration</text></g><g stroke-linecap="round" transform="translate(368.73056293642185 10) rotate(0 173.21350873569918 118.1872258747535)"><path d="M32 0 M32 0 C143.92 0.12, 253.25 -2.06, 314.43 0 M32 0 C106.43 -3.36, 178.76 -1.78, 314.43 0 M314.43 0 C337.78 3.25, 343.3 11.97, 346.43 32 M314.43 0 C339 -2.76, 342.17 11.96, 346.43 32 M346.43 32 C342.36 92.14, 344.4 160.42, 346.43 204.37 M346.43 32 C343 77.67, 341.32 124.83, 346.43 204.37 M346.43 204.37 C345.28 224.89, 336.42 236.99, 314.43 236.37 M346.43 204.37 C345.01 223.28, 335.64 236.32, 314.43 236.37 M314.43 236.37 C205.21 237.24, 103.73 237.03, 32 236.37 M314.43 236.37 C224.17 240.34, 133.88 240.89, 32 236.37 M32 236.37 C10.28 234.74, 3.8 228.06, 0 204.37 M32 236.37 C9.43 239.94, 0.53 224.62, 0 204.37 M0 204.37 C2.94 156.28, 4.18 101.29, 0 32 M0 204.37 C-5.06 160.71, -4.22 113.04, 0 32 M0 32 C-3.32 12.97, 10.48 3.13, 32 0 M0 32 C1.65 12.35, 6.41 -1.44, 32 0" stroke="#1e1e1e" stroke-width="1" fill="none"></path></g><g transform="translate(417.05345045041213 79.90318884607893) rotate(0 123.38102722167969 48.28403702867462)"><text x="123.38102722167969" y="0" font-family="Virgil, Segoe UI Emoji" font-size="25.75148641529314px" fill="#1e1e1e" text-anchor="middle" style="white-space: pre;" direction="ltr" dominant-baseline="text-before-edge">Service registration</text><text x="123.38102722167969" y="32.189358019116426" font-family="Virgil, Segoe UI Emoji" font-size="25.75148641529314px" fill="#1e1e1e" text-anchor="middle" style="white-space: pre;" direction="ltr" dominant-baseline="text-before-edge">and</text><text x="123.38102722167969" y="64.37871603823285" font-family="Virgil, Segoe UI Emoji" font-size="25.75148641529314px" fill="#1e1e1e" text-anchor="middle" style="white-space: pre;" direction="ltr" dominant-baseline="text-before-edge"> discovery</text></g><g stroke-linecap="round" transform="translate(366.84534226032883 547.7895780951387) rotate(0 173.21350873569918 118.1872258747535)"><path d="M32 0 M32 0 C116.66 -1.25, 202.89 3.14, 314.43 0 M32 0 C91.38 1.28, 154.13 1.59, 314.43 0 M314.43 0 C335.17 -3.19, 349.11 6.92, 346.43 32 M314.43 0 C336.37 -3.31, 346.84 7.11, 346.43 32 M346.43 32 C345.72 98.02, 344.32 163.56, 346.43 204.37 M346.43 32 C347.17 83.49, 346.75 135.57, 346.43 204.37 M346.43 204.37 C350.1 225.81, 332.12 238.4, 314.43 236.37 M346.43 204.37 C342.37 223.18, 331.97 233.98, 314.43 236.37 M314.43 236.37 C235.02 232.81, 158.82 235.02, 32 236.37 M314.43 236.37 C243.07 237.29, 174.44 235.46, 32 236.37 M32 236.37 C13.56 238.51, 1.63 225.7, 0 204.37 M32 236.37 C9.61 239.21, -0.34 224.03, 0 204.37 M0 204.37 C-0.08 153.46, -6.37 93.76, 0 32 M0 204.37 C-2.3 162.03, -1.73 116.46, 0 32 M0 32 C-2.15 9.17, 10.08 1.86, 32 0 M0 32 C-3.55 14.62, 11.88 0.21, 32 0" stroke="#1e1e1e" stroke-width="1" fill="none"></path></g><g transform="translate(487.7144399268291 645.7360569320863) rotate(0 45.731964111328125 16.094679009558263)"><text x="45.731964111328125" y="0" font-family="Virgil, Segoe UI Emoji" font-size="25.75148641529314px" fill="#1e1e1e" text-anchor="middle" style="white-space: pre;" direction="ltr" dominant-baseline="text-before-edge">Routing</text></g><g stroke-linecap="round" transform="translate(1314.1805194752706 414.11432066301086) rotate(0 173.21350873569918 57.1195418313348)"><path d="M28.56 0 M28.56 0 C109.33 4.73, 192.05 4.6, 317.87 0 M28.56 0 C100.54 -0.36, 173.43 -2.94, 317.87 0 M317.87 0 C339.97 -1.71, 347.45 11.14, 346.43 28.56 M317.87 0 C339.06 4.35, 346.35 7.45, 346.43 28.56 M346.43 28.56 C348.78 42.46, 343.78 50.16, 346.43 85.68 M346.43 28.56 C344.64 42.71, 344.83 62.21, 346.43 85.68 M346.43 85.68 C343.59 107.67, 333.41 116.65, 317.87 114.24 M346.43 85.68 C344.26 103.48, 340.69 114.98, 317.87 114.24 M317.87 114.24 C257.15 108.76, 191.13 111.76, 28.56 114.24 M317.87 114.24 C243.37 112.44, 170.17 114.19, 28.56 114.24 M28.56 114.24 C11.07 115.48, -1.95 107.33, 0 85.68 M28.56 114.24 C5.51 112.09, 3.15 101.55, 0 85.68 M0 85.68 C0.17 68.83, 0.08 58.53, 0 28.56 M0 85.68 C-1.42 69.33, -1.67 52.22, 0 28.56 M0 28.56 C-0.73 11.18, 8.32 0.32, 28.56 0 M0 28.56 C-3.64 10.29, 10.83 -0.09, 28.56 0" stroke="#1e1e1e" stroke-width="1" fill="none"></path></g><g transform="translate(1444.3745625737847 455.1391834847873) rotate(0 43.465965270996094 16.094679009558263)"><text x="43.465965270996094" y="0" font-family="Virgil, Segoe UI Emoji" font-size="25.75148641529314px" fill="#1e1e1e" text-anchor="middle" style="white-space: pre;" direction="ltr" dominant-baseline="text-before-edge">Service</text></g><g stroke-linecap="round" transform="translate(1313.452499897543 609.303761772369) rotate(0 173.21350873569918 57.1195418313348)"><path d="M28.56 0 M28.56 0 C93.49 3.7, 159.99 3.24, 317.87 0 M28.56 0 C129.35 -2.14, 230.32 -4.42, 317.87 0 M317.87 0 C338.85 3.62, 342.56 12.45, 346.43 28.56 M317.87 0 C337.56 2.47, 349.95 5.94, 346.43 28.56 M346.43 28.56 C348.02 36.37, 345.9 50.49, 346.43 85.68 M346.43 28.56 C346.81 51.33, 345.7 68.88, 346.43 85.68 M346.43 85.68 C343.84 106.92, 339.68 117.84, 317.87 114.24 M346.43 85.68 C342.65 108.62, 338.43 115.56, 317.87 114.24 M317.87 114.24 C208.59 115.52, 104.21 112.17, 28.56 114.24 M317.87 114.24 C254.95 116.06, 190.36 115.61, 28.56 114.24 M28.56 114.24 C6.57 116.34, 1.39 107.12, 0 85.68 M28.56 114.24 C11.89 112.97, 2.2 105.45, 0 85.68 M0 85.68 C-3.52 70.15, 1.38 52.11, 0 28.56 M0 85.68 C0.89 72.93, -1.17 61.87, 0 28.56 M0 28.56 C1.36 8.22, 7.13 1.82, 28.56 0 M0 28.56 C-1.3 12.68, 8.67 1.76, 28.56 0" stroke="#1e1e1e" stroke-width="1" fill="none"></path></g><g transform="translate(1443.2000433622452 650.3286245941454) rotate(0 43.465965270996094 16.094679009558263)"><text x="43.465965270996094" y="0" font-family="Virgil, Segoe UI Emoji" font-size="25.75148641529314px" fill="#1e1e1e" text-anchor="middle" style="white-space: pre;" direction="ltr" dominant-baseline="text-before-edge">Service</text></g><g stroke-linecap="round" transform="translate(1313.1441203438335 803.6511263421205) rotate(0 173.21350873569918 57.1195418313348)"><path d="M28.56 0 M28.56 0 C105.69 0.94, 190.07 4.52, 317.87 0 M28.56 0 C123.42 0.46, 219.98 1.06, 317.87 0 M317.87 0 C334.98 0.6, 348.59 7, 346.43 28.56 M317.87 0 C337.54 1.49, 350.4 6.98, 346.43 28.56 M346.43 28.56 C347.79 48.07, 345.35 59.07, 346.43 85.68 M346.43 28.56 C347.69 44.41, 345.32 61.99, 346.43 85.68 M346.43 85.68 C342.52 107.94, 335.46 113.66, 317.87 114.24 M346.43 85.68 C348.72 100.34, 334.72 118.35, 317.87 114.24 M317.87 114.24 C249.24 113.95, 182.55 111.87, 28.56 114.24 M317.87 114.24 C226.72 116.04, 138.85 118.34, 28.56 114.24 M28.56 114.24 C6.65 114.05, -0.5 106.28, 0 85.68 M28.56 114.24 C11.08 110.75, -3.04 103.34, 0 85.68 M0 85.68 C-4.05 64.01, 0.28 47.44, 0 28.56 M0 85.68 C1.05 67.43, -0.46 47.37, 0 28.56 M0 28.56 C-3.86 9.19, 6.09 0.36, 28.56 0 M0 28.56 C-0.8 8.01, 8.95 -3.79, 28.56 0" stroke="#1e1e1e" stroke-width="1" fill="none"></path></g><g transform="translate(1442.8916638085357 844.6759891638969) rotate(0 43.465965270996094 16.094679009558263)"><text x="43.465965270996094" y="0" font-family="Virgil, Segoe UI Emoji" font-size="25.75148641529314px" fill="#1e1e1e" text-anchor="middle" style="white-space: pre;" direction="ltr" dominant-baseline="text-before-edge">Service</text></g><g stroke-linecap="round" transform="translate(10 518.4884070727121) rotate(0 81.3515245508479 71.46120329713813)"><path d="M24.89 18.3 C32.23 11.09, 45.71 5.39, 57.24 2.73 C68.78 0.07, 82.54 0.78, 94.12 2.34 C105.7 3.89, 117.04 6.58, 126.72 12.05 C136.39 17.52, 146.02 26, 152.19 35.17 C158.37 44.35, 163.07 56.39, 163.77 67.11 C164.47 77.84, 161.04 89.92, 156.42 99.54 C151.79 109.16, 144.77 117.99, 136.01 124.83 C127.26 131.67, 115.1 137.75, 103.88 140.58 C92.67 143.41, 80.35 143.76, 68.72 141.83 C57.09 139.89, 43.91 134.76, 34.1 128.96 C24.29 123.16, 15.63 115.76, 9.85 107.03 C4.07 98.29, -0.23 87.08, -0.58 76.53 C-0.94 65.98, -2.23 56.07, 7.73 43.75 C17.68 31.43, 44.05 9.62, 59.15 2.61 C74.25 -4.4, 97.59 0.65, 98.34 1.69 M152.11 30.69 C159.41 38.21, 162.61 53.15, 164.06 63.23 C165.52 73.32, 165.22 82.03, 160.83 91.21 C156.44 100.39, 146.6 110.74, 137.72 118.33 C128.84 125.91, 118.03 132.91, 107.53 136.73 C97.04 140.55, 86.13 142.18, 74.73 141.24 C63.33 140.31, 49.68 136.11, 39.11 131.14 C28.53 126.18, 18.1 119.7, 11.27 111.46 C4.45 103.23, -1.1 92.27, -1.83 81.73 C-2.55 71.2, 2.42 57.87, 6.92 48.24 C11.43 38.62, 17.98 31.27, 25.21 23.99 C32.44 16.71, 39.73 8.87, 50.28 4.57 C60.84 0.28, 75.99 -2.38, 88.55 -1.76 C101.12 -1.13, 115.3 2.33, 125.67 8.33 C136.04 14.33, 146.93 30.3, 150.78 34.22 C154.62 38.15, 150.2 32.03, 148.73 31.87" stroke="#1e1e1e" stroke-width="1" fill="none"></path></g><g transform="translate(51.32932404123494 572.4189089266933) rotate(0 39.99798583984375 17.5)"><text x="39.99798583984375" y="0" font-family="Virgil, Segoe UI Emoji" font-size="28px" fill="#1e1e1e" text-anchor="middle" style="white-space: pre;" direction="ltr" dominant-baseline="text-before-edge">Mobile</text></g><g stroke-linecap="round" transform="translate(13.043993535269692 698.4277594986804) rotate(0 81.3515245508479 71.46120329713813)"><path d="M119.41 8.31 C129.27 12.24, 138.26 22.72, 145.41 31.3 C152.56 39.89, 159.78 50.24, 162.32 59.84 C164.85 69.45, 164.19 79.12, 160.63 88.94 C157.08 98.76, 148.62 110.39, 140.98 118.75 C133.33 127.11, 125.55 135.26, 114.77 139.1 C103.99 142.95, 88.37 142.88, 76.3 141.81 C64.23 140.74, 52.47 137.15, 42.33 132.67 C32.19 128.18, 22.6 123, 15.45 114.92 C8.3 106.84, 1.52 94.86, -0.55 84.17 C-2.62 73.49, -0.4 60.5, 3.01 50.83 C6.42 41.16, 12.11 33.91, 19.9 26.17 C27.7 18.43, 39.16 8.63, 49.79 4.38 C60.42 0.14, 69.39 -1.59, 83.67 0.69 C97.95 2.98, 125.34 13.56, 135.47 18.1 C145.6 22.64, 145.41 27.28, 144.46 27.95 M45.64 6 C55.28 1.07, 72.86 -1.1, 84.86 -0.97 C96.86 -0.85, 107.02 1.46, 117.67 6.76 C128.31 12.05, 141.6 21.9, 148.71 30.78 C155.82 39.65, 158.36 50.03, 160.33 60.02 C162.29 70.01, 162.83 81.28, 160.49 90.7 C158.15 100.13, 153.92 108.81, 146.29 116.57 C138.67 124.34, 125.96 132.94, 114.75 137.29 C103.54 141.65, 91.12 143.47, 79.04 142.68 C66.96 141.89, 52.29 137.64, 42.26 132.55 C32.23 127.47, 25.55 119.76, 18.88 112.15 C12.21 104.54, 4.66 97.13, 2.25 86.89 C-0.16 76.66, 1.73 60.54, 4.41 50.75 C7.1 40.97, 11.27 35.3, 18.37 28.19 C25.47 21.08, 41.77 11.91, 47 8.08 C52.24 4.25, 49.33 4.92, 49.77 5.23" stroke="#1e1e1e" stroke-width="1" fill="none"></path></g><g transform="translate(69.15730652914135 752.3582613526617) rotate(0 25.21399688720703 17.5)"><text x="25.21399688720703" y="0" font-family="Virgil, Segoe UI Emoji" font-size="28px" fill="#1e1e1e" text-anchor="middle" style="white-space: pre;" direction="ltr" dominant-baseline="text-before-edge">Web</text></g><g stroke-linecap="round"><g transform="translate(185.6940622568727 589.1558332430745) rotate(0 90.23545813192595 36.86280343513124)"><path d="M-2.49 -0.07 C27.97 12.15, 152.06 60.16, 182.97 72.63 M1.35 -2.58 C31.54 10.2, 151.4 64.14, 181.48 76.31" stroke="#1e1e1e" stroke-width="1" fill="none"></path></g><g transform="translate(185.6940622568727 589.1558332430745) rotate(0 90.23545813192595 36.86280343513124)"><path d="M151.43 76.59 C160.86 77.59, 173.09 74.9, 177.74 74.03 M151.4 75.62 C159.15 76.2, 164.55 76.77, 182.74 75.16" stroke="#1e1e1e" stroke-width="1" fill="none"></path></g><g transform="translate(185.6940622568727 589.1558332430745) rotate(0 90.23545813192595 36.86280343513124)"><path d="M159.54 57.73 C166.38 64.39, 176.12 67.48, 177.74 74.03 M159.51 56.77 C165.51 61.73, 169.1 66.52, 182.74 75.16" stroke="#1e1e1e" stroke-width="1" fill="none"></path></g></g><mask></mask><g stroke-linecap="round"><g transform="translate(182.4693426793474 775.2115219226807) rotate(0 89.45086883310069 -54.01977276572484)"><path d="M-0.32 -0.25 C30.03 -17.76, 152.5 -85.86, 182.85 -103.88 M-3.95 -2.86 C26.19 -21.25, 151.13 -90.49, 181.9 -107.79" stroke="#1e1e1e" stroke-width="1" fill="none"></path></g><g transform="translate(182.4693426793474 775.2115219226807) rotate(0 89.45086883310069 -54.01977276572484)"><path d="M161.93 -81.68 C171.4 -90.58, 171.34 -97.76, 178.49 -109.11 M163.2 -86.45 C167.13 -92.4, 174.67 -98.13, 182.98 -109.29" stroke="#1e1e1e" stroke-width="1" fill="none"></path></g><g transform="translate(182.4693426793474 775.2115219226807) rotate(0 89.45086883310069 -54.01977276572484)"><path d="M151.93 -99.6 C164.8 -102.63, 168.01 -103.97, 178.49 -109.11 M153.2 -104.37 C160.4 -104.18, 171.29 -103.92, 182.98 -109.29" stroke="#1e1e1e" stroke-width="1" fill="none"></path></g></g><mask></mask><g stroke-linecap="round"><g transform="translate(504.1829597840733 529.3036204250311) rotate(0 0.1974342627581791 -136.98882283523392)"><path d="M1.22 -0.5 C1.63 -45.75, 2.31 -223.81, 1.73 -268.74 M-1.56 -3.24 C-1.31 -48.21, -0.39 -229.45, 0.42 -273.48" stroke="#1e1e1e" stroke-width="1" fill="none"></path></g><g transform="translate(504.1829597840733 529.3036204250311) rotate(0 0.1974342627581791 -136.98882283523392)"><path d="M9.67 -242.71 C7.81 -256.11, 3.16 -261.1, -0.02 -269.92 M11.37 -246.65 C7.33 -256.06, 3.53 -262.95, 2.03 -272.97" stroke="#1e1e1e" stroke-width="1" fill="none"></path></g><g transform="translate(504.1829597840733 529.3036204250311) rotate(0 0.1974342627581791 -136.98882283523392)"><path d="M-10.85 -242.93 C-7.07 -256.45, -6.07 -261.37, -0.02 -269.92 M-9.15 -246.87 C-6.05 -256.13, -2.7 -262.94, 2.03 -272.97" stroke="#1e1e1e" stroke-width="1" fill="none"></path></g></g><mask></mask><g stroke-linecap="round"><g transform="translate(581.4132218418854 255.80487647615075) rotate(0 -1.0509884999746646 135.60968586035057)"><path d="M2.04 -1.57 C1.53 43.34, -0.48 224.2, -1.18 270.15 M-0.3 3.75 C-1.46 48.92, -4.69 228.45, -4.06 272.79" stroke="#1e1e1e" stroke-width="1" fill="none"></path></g><g transform="translate(581.4132218418854 255.80487647615075) rotate(0 -1.0509884999746646 135.60968586035057)"><path d="M-16.43 242.87 C-12.93 251.66, -3.54 263.78, -0.77 269.85 M-15.35 246.36 C-11.3 254.5, -7.3 262.69, -4.45 271.35" stroke="#1e1e1e" stroke-width="1" fill="none"></path></g><g transform="translate(581.4132218418854 255.80487647615075) rotate(0 -1.0509884999746646 135.60968586035057)"><path d="M4.09 242.96 C0.07 252.02, 1.95 264.1, -0.77 269.85 M5.17 246.45 C1.91 254.83, -1.41 262.98, -4.45 271.35" stroke="#1e1e1e" stroke-width="1" fill="none"></path></g></g><mask></mask><g stroke-linecap="round"><g transform="translate(739.69235128943 647.8187814839885) rotate(0 281.9430224950838 -102.22422597657476)"><path d="M-2.54 -2.5 C91.87 -36.39, 471.6 -168.75, 566.42 -202.67 M1.28 2.31 C95.5 -32.44, 471.2 -172.41, 565.26 -206.76" stroke="#1e1e1e" stroke-width="1" fill="none"></path></g><g transform="translate(739.69235128943 647.8187814839885) rotate(0 281.9430224950838 -102.22422597657476)"><path d="M538.79 -184.54 C551.56 -189.96, 553.64 -200.86, 565.42 -206.34 M543.91 -188.54 C552.34 -194.36, 558.38 -199.13, 563.6 -207.04" stroke="#1e1e1e" stroke-width="1" fill="none"></path></g><g transform="translate(739.69235128943 647.8187814839885) rotate(0 281.9430224950838 -102.22422597657476)"><path d="M531.68 -203.79 C546.66 -203.32, 550.88 -208.46, 565.42 -206.34 M536.8 -207.79 C547.37 -206.93, 555.86 -205.07, 563.6 -207.04" stroke="#1e1e1e" stroke-width="1" fill="none"></path></g></g><mask></mask><g stroke-linecap="round"><g transform="translate(734.5980327180496 653.607701018952) rotate(0 283.96875587452814 0.8387667541242081)"><path d="M-2.63 0.78 C92.38 1.13, 475.4 -0.77, 570.57 -0.45 M1.14 -1.26 C95.89 -0.25, 475.1 2.96, 569.3 2.94" stroke="#1e1e1e" stroke-width="1" fill="none"></path></g><g transform="translate(734.5980327180496 653.607701018952) rotate(0 283.96875587452814 0.8387667541242081)"><path d="M542.18 15.62 C549.6 9.8, 563.09 7.19, 572.41 -0.51 M541.84 11.16 C548.74 11.35, 559.7 4.75, 568.34 4.21" stroke="#1e1e1e" stroke-width="1" fill="none"></path></g><g transform="translate(734.5980327180496 653.607701018952) rotate(0 283.96875587452814 0.8387667541242081)"><path d="M542.28 -4.9 C549.3 -4.18, 562.76 -0.25, 572.41 -0.51 M541.94 -9.36 C548.96 -3.03, 559.9 -3.5, 568.34 4.21" stroke="#1e1e1e" stroke-width="1" fill="none"></path></g></g><mask></mask><g stroke-linecap="round"><g transform="translate(735.9535020164476 667.7789343364959) rotate(0 282.81346013630355 98.2355363389928)"><path d="M1.18 2.49 C95.79 35.36, 473.21 162.69, 567.25 195.1 M-1.62 1.37 C92.78 33.56, 471.62 158.65, 565.79 190.57" stroke="#1e1e1e" stroke-width="1" fill="none"></path></g><g transform="translate(735.9535020164476 667.7789343364959) rotate(0 282.81346013630355 98.2355363389928)"><path d="M539.36 193.42 C545.65 190.31, 556.85 188.29, 563.34 189.53 M534.48 192.92 C545.58 190.48, 558.06 191.31, 564.27 189.75" stroke="#1e1e1e" stroke-width="1" fill="none"></path></g><g transform="translate(735.9535020164476 667.7789343364959) rotate(0 282.81346013630355 98.2355363389928)"><path d="M545.86 173.96 C550 176.47, 559.34 180.02, 563.34 189.53 M540.98 173.46 C549.38 178.5, 559.39 186.73, 564.27 189.75" stroke="#1e1e1e" stroke-width="1" fill="none"></path></g></g><mask></mask><g stroke-linecap="round" transform="translate(1305.237768745821 124.81602165356458) rotate(0 173.21350873569918 57.1195418313348)"><path d="M28.56 0 M28.56 0 C138.46 -2.56, 242.21 -3.35, 317.87 0 M28.56 0 C113.14 -3.72, 200.05 -3.15, 317.87 0 M317.87 0 C340.35 3.31, 345.77 12.14, 346.43 28.56 M317.87 0 C337.89 -3.75, 343.6 13, 346.43 28.56 M346.43 28.56 C351.43 50.62, 347.54 66.92, 346.43 85.68 M346.43 28.56 C346.2 44.65, 346.11 58.97, 346.43 85.68 M346.43 85.68 C347.75 105.12, 338.05 116.72, 317.87 114.24 M346.43 85.68 C349.68 102.91, 338.27 112.62, 317.87 114.24 M317.87 114.24 C259.09 116.43, 199.73 116.81, 28.56 114.24 M317.87 114.24 C236.5 117.88, 158.4 117.47, 28.56 114.24 M28.56 114.24 C13.02 114.07, -2.98 107.73, 0 85.68 M28.56 114.24 C13.04 111.31, 0.23 104.7, 0 85.68 M0 85.68 C-0.4 65.97, 2.54 40.06, 0 28.56 M0 85.68 C1.1 64.85, -0.55 40.13, 0 28.56 M0 28.56 C-0.87 8.33, 9.77 -2.46, 28.56 0 M0 28.56 C2.85 13.82, 12.58 -2.02, 28.56 0" stroke="#1e1e1e" stroke-width="1" fill="none"></path></g><g transform="translate(1416.5998065342537 165.84088447534145) rotate(0 61.851470947265625 16.094679009558206)"><text x="61.851470947265625" y="0" font-family="Virgil, Segoe UI Emoji" font-size="25.75148641529314px" fill="#1e1e1e" text-anchor="middle" style="white-space: pre;" direction="ltr" dominant-baseline="text-before-edge">3rd party</text></g><g stroke-linecap="round"><g transform="translate(1545.9390886396814 260.6029628557129) rotate(0 -1.2566887344728457 67.82921075018379)"><path d="M2.19 -0.07 C1.05 23.17, -3.46 115.59, -4.7 138.24 M-0.07 -2.58 C-0.49 19.89, 0.66 110.25, 0.73 133.69" stroke="#1e1e1e" stroke-width="1" fill="none"></path></g><g transform="translate(1545.9390886396814 260.6029628557129) rotate(0 -1.2566887344728457 67.82921075018379)"><path d="M-9.86 103.04 C-4.84 112.65, -4.37 124.01, 1.04 133.76 M-11.21 104.46 C-6.75 115.92, -1.12 125.72, 1.57 133.2" stroke="#1e1e1e" stroke-width="1" fill="none"></path></g><g transform="translate(1545.9390886396814 260.6029628557129) rotate(0 -1.2566887344728457 67.82921075018379)"><path d="M10.66 102.87 C7.99 112.87, 0.77 124.29, 1.04 133.76 M9.31 104.29 C6.88 115.61, 5.63 125.46, 1.57 133.2" stroke="#1e1e1e" stroke-width="1" fill="none"></path></g></g><mask></mask><g stroke-linecap="round"><g transform="translate(1413.726498063339 396.8224683078769) rotate(0 0.22448442444056127 -73.09674900792572)"><path d="M-1.91 0.13 C-1.43 -24.46, 1.42 -122.05, 1.7 -146.32 M2.25 -2.27 C2.72 -26.64, 1.6 -120.21, 0.97 -143.66" stroke="#1e1e1e" stroke-width="1" fill="none"></path></g><g transform="translate(1413.726498063339 396.8224683078769) rotate(0 0.22448442444056127 -73.09674900792572)"><path d="M11.91 -111.69 C6.19 -121.79, 4.58 -130.54, 0.64 -147.38 M10.82 -114.59 C11.43 -120.92, 9.02 -126.72, 1.15 -142.3" stroke="#1e1e1e" stroke-width="1" fill="none"></path></g><g transform="translate(1413.726498063339 396.8224683078769) rotate(0 0.22448442444056127 -73.09674900792572)"><path d="M-8.61 -111.33 C-9.06 -121.24, -5.39 -130.08, 0.64 -147.38 M-9.69 -114.22 C-4.43 -120.36, -2.17 -126.24, 1.15 -142.3" stroke="#1e1e1e" stroke-width="1" fill="none"></path></g></g><mask></mask><g transform="translate(1054.4175148457016 298.5989467977381) rotate(0 159.12393188476562 17.5)"><text x="159.12393188476562" y="0" font-family="Virgil, Segoe UI Emoji" font-size="28px" fill="#1e1e1e" text-anchor="middle" style="white-space: pre;" direction="ltr" dominant-baseline="text-before-edge">Service-to-service calls</text></g><g transform="translate(910.6322880855278 608.3642914443133) rotate(0 100.09996032714844 17.5)"><text x="100.09996032714844" y="0" font-family="Virgil, Segoe UI Emoji" font-size="28px" fill="#1e1e1e" text-anchor="middle" style="white-space: pre;" direction="ltr" dominant-baseline="text-before-edge">Load balancing</text></g><g transform="translate(1588.2132383883309 298.5989467977381) rotate(0 112.34994506835938 17.5)"><text x="112.34994506835938" y="0" font-family="Virgil, Segoe UI Emoji" font-size="28px" fill="#1e1e1e" text-anchor="middle" style="white-space: pre;" direction="ltr" dominant-baseline="text-before-edge">Circuit Breakers</text></g><g stroke-linecap="round" transform="translate(2158.4991478528045 444.3741175995947) rotate(89.99999999999994 54.1051025390625 222.95635986328125)"><path d="M0.56 -1.63 C39.42 0.88, 77.1 -1.19, 108.71 -0.93 M0.33 0.05 C39.31 -1.28, 79.32 -0.54, 107.87 0.06 M108.39 -0.23 C109.53 90.65, 108.72 182.03, 108.06 446 M108.42 0.33 C109.3 166.8, 109.53 334.63, 108.26 445.47 M106.23 446 C71.77 446.3, 31.59 447.03, 0.41 447.33 M107.96 445.13 C73.31 445.77, 37.01 444.74, 0.38 445.32 M0.44 445.9 C-1.52 308.61, -0.38 173.05, 0.35 -0.8 M0.13 445.89 C1.24 316.22, 1 185.42, -0.42 0.18" stroke="#000000" stroke-width="1" fill="none"></path></g><g transform="translate(2152.5230597150075 652.7906566645902) rotate(359.781628286982 47.319984436035156 17.5)"><text x="0" y="0" font-family="Virgil, Segoe UI Emoji" font-size="28px" fill="#000000" text-anchor="start" style="white-space: pre;" direction="ltr" dominant-baseline="text-before-edge">TOPIC</text></g><g stroke-linecap="round" transform="translate(2171.8331017102337 430.19415544138883) rotate(89.99999999999994 39.7957763671875 237.16159057617188)"><path d="M0.42 -1.49 C17.89 -1.16, 36.16 0.19, 80.14 0.65 M-0.67 -0.24 C23.9 0.84, 47.53 1.3, 79.72 0.19 M79.03 -0.36 C79.87 131.07, 80.66 262.41, 79.35 474.7 M79.85 0.3 C79.89 173.92, 80.09 348.4, 79.49 473.89 M79.62 475.68 C55.77 475.99, 31.73 474.25, -0.95 473.82 M79.65 473.66 C62.34 474.02, 44.39 475.04, -0.4 474.78 M0.49 474.22 C1.61 332.04, 1.21 190.87, 0.58 0.24 M0.17 473.99 C-2.24 334.61, -2.12 194.37, -0.13 0.15" stroke="#000000" stroke-width="1" fill="none"></path></g><g stroke-linecap="round"><g transform="translate(1679.066398792107 457.6811915611854) rotate(0 142.2856132472334 96.66173224027023)"><path d="M0.55 -0.89 C48.58 31.26, 239.96 160.83, 287.17 193.33 M-2.6 -3.84 C45.4 28.78, 239.03 164.98, 286.39 197.17" stroke="#1e1e1e" stroke-width="1" fill="none"></path></g><g transform="translate(1679.066398792107 457.6811915611854) rotate(0 142.2856132472334 96.66173224027023)"><path d="M256.11 193.4 C265.58 190.47, 274.39 192.84, 289.2 195.51 M258.36 188.2 C268.86 194.01, 279.89 196.76, 288.28 198.48" stroke="#1e1e1e" stroke-width="1" fill="none"></path></g><g transform="translate(1679.066398792107 457.6811915611854) rotate(0 142.2856132472334 96.66173224027023)"><path d="M267.79 176.53 C274.25 178.09, 279.98 184.91, 289.2 195.51 M270.04 171.34 C276.2 183.47, 282.89 192.5, 288.28 198.48" stroke="#1e1e1e" stroke-width="1" fill="none"></path></g></g><mask></mask><g stroke-linecap="round"><g transform="translate(1674.3411443974019 665.2965210811169) rotate(0 147.67160988903197 0.6527361234615228)"><path d="M1.95 -1.69 C51.6 -0.97, 247.09 1.59, 295.79 1.92 M-0.44 3.56 C49.05 3.69, 244.99 -2.21, 293.66 -2.25" stroke="#1e1e1e" stroke-width="1" fill="none"></path></g><g transform="translate(1674.3411443974019 665.2965210811169) rotate(0 147.67160988903197 0.6527361234615228)"><path d="M263.23 8.78 C274.3 3.63, 278.17 7.28, 292.48 -1.26 M266.01 10.39 C272.54 7.91, 276.19 3.81, 291.86 -1.35" stroke="#1e1e1e" stroke-width="1" fill="none"></path></g><g transform="translate(1674.3411443974019 665.2965210811169) rotate(0 147.67160988903197 0.6527361234615228)"><path d="M262.87 -11.74 C273.67 -12.31, 277.62 -4.08, 292.48 -1.26 M265.66 -10.13 C272.29 -8.49, 276.02 -8.45, 291.86 -1.35" stroke="#1e1e1e" stroke-width="1" fill="none"></path></g></g><mask></mask><g stroke-linecap="round"><g transform="translate(1673.5720906183324 874.7674358269203) rotate(0 146.71626398902845 -99.96477005229917)"><path d="M1.58 1.11 C49.96 -31.42, 241.28 -163.83, 289.43 -197.21 M-1.01 -0.75 C48.29 -33.87, 246.3 -168.51, 294.44 -201.04" stroke="#1e1e1e" stroke-width="1" fill="none"></path></g><g transform="translate(1673.5720906183324 874.7674358269203) rotate(0 146.71626398902845 -99.96477005229917)"><path d="M278.45 -180.39 C285.06 -185.64, 286.99 -193.68, 292.17 -200.28 M276.15 -177.94 C280.49 -185.38, 286.85 -190.24, 295.26 -200.24" stroke="#1e1e1e" stroke-width="1" fill="none"></path></g><g transform="translate(1673.5720906183324 874.7674358269203) rotate(0 146.71626398902845 -99.96477005229917)"><path d="M266.94 -197.37 C276.4 -198.19, 281.42 -201.66, 292.17 -200.28 M264.63 -194.93 C272.07 -197.66, 281.7 -197.7, 295.26 -200.24" stroke="#1e1e1e" stroke-width="1" fill="none"></path></g></g><mask></mask><g transform="translate(2062.7529320324993 559.6159844537774) rotate(0 148.87594604492188 17.5)"><text x="148.87594604492188" y="0" font-family="Virgil, Segoe UI Emoji" font-size="28px" fill="#1e1e1e" text-anchor="middle" style="white-space: pre;" direction="ltr" dominant-baseline="text-before-edge">Distributed messaging</text></g><g stroke-linecap="round" transform="translate(2612.8584267016595 519.5087471911454) rotate(0 173.21350873569918 57.1195418313348)"><path d="M28.56 0 M28.56 0 C99.07 -3.13, 172.35 0.48, 317.87 0 M28.56 0 C124.87 1.47, 218.73 3.49, 317.87 0 M317.87 0 C335.6 -3.11, 348.87 9.09, 346.43 28.56 M317.87 0 C341.29 -4.32, 347 5.72, 346.43 28.56 M346.43 28.56 C350.15 47.93, 343.13 65.59, 346.43 85.68 M346.43 28.56 C345.73 50.76, 346.61 72.26, 346.43 85.68 M346.43 85.68 C344.8 107.58, 337.8 117.49, 317.87 114.24 M346.43 85.68 C342.83 105.44, 337.45 116.59, 317.87 114.24 M317.87 114.24 C245.58 112.52, 178.65 110.44, 28.56 114.24 M317.87 114.24 C237.36 118.11, 156.99 119.27, 28.56 114.24 M28.56 114.24 C9.6 110.29, 0.63 106.9, 0 85.68 M28.56 114.24 C8.71 112.74, 0.26 105.23, 0 85.68 M0 85.68 C-3.53 72.04, -0.76 63.56, 0 28.56 M0 85.68 C0.68 72.63, 0.58 62.29, 0 28.56 M0 28.56 C-3.33 7.89, 11.64 2.39, 28.56 0 M0 28.56 C-0.38 9.68, 6.01 0.81, 28.56 0" stroke="#1e1e1e" stroke-width="1" fill="none"></path></g><g transform="translate(2743.052469800172 560.5336100129218) rotate(0 43.465965270996094 16.094679009558263)"><text x="43.465965270996094" y="0" font-family="Virgil, Segoe UI Emoji" font-size="25.75148641529314px" fill="#1e1e1e" text-anchor="middle" style="white-space: pre;" direction="ltr" dominant-baseline="text-before-edge">Service</text></g><g stroke-linecap="round"><g transform="translate(2592.1671685154233 581.9073019956954) rotate(0 -63.94907526556017 42.052588369784075)"><path d="M1.67 2.34 C-19.42 15.94, -105.87 66.71, -127.47 80.23 M-0.87 1.15 C-22.22 15.2, -108.08 70.03, -129.57 82.96" stroke="#1e1e1e" stroke-width="1" fill="none"></path></g><g transform="translate(2592.1671685154233 581.9073019956954) rotate(0 -63.94907526556017 42.052588369784075)"><path d="M-107.73 59.71 C-118.59 65.61, -118.96 74.6, -131.28 86.65 M-112.97 60.71 C-115.6 65.39, -124.85 72.57, -128.17 81.83" stroke="#1e1e1e" stroke-width="1" fill="none"></path></g><g transform="translate(2592.1671685154233 581.9073019956954) rotate(0 -63.94907526556017 42.052588369784075)"><path d="M-96.87 77.13 C-110.46 78.51, -113.72 82.86, -131.28 86.65 M-102.11 78.12 C-108.02 77.48, -120.68 79.19, -128.17 81.83" stroke="#1e1e1e" stroke-width="1" fill="none"></path></g></g><mask></mask><g stroke-linecap="round"><g transform="translate(3167.230709247142 611.3096325060751) rotate(0 50.32404827853861 48.14465020106093)" fill-rule="evenodd"><path d="M-0.97 -0.31 L-1.05 94.29 L0.38 95.46 L5.72 98.65 L23.03 104.59 L52.54 106.72 L83.59 102.65 L91.39 100.98 L98.8 94.01 L99.35 91.61 L103.17 -0.89 L95.71 -2.17 L74.92 -11.84 L49.35 -9.56 L18.55 -9.4 L-0.85 -1.44" stroke="none" stroke-width="0" fill="#228be6" fill-rule="evenodd"></path><path d="M-0.02 0.35 C0.07 14.02, 0.76 64.87, 0.97 80.96 C1.19 97.04, -0.83 93.4, 1.26 96.84 C3.36 100.28, 8.5 100.04, 13.52 101.59 C18.54 103.14, 24.97 105.14, 31.4 106.11 C37.82 107.08, 45.91 107.4, 52.08 107.43 C58.26 107.46, 63.1 106.97, 68.45 106.27 C73.79 105.57, 78.86 105.12, 84.17 103.22 C89.48 101.31, 97.48 98.57, 100.29 94.85 C103.11 91.14, 100.95 95.08, 101.05 80.94 C101.15 66.8, 101.07 23.41, 100.9 10.01 C100.73 -3.39, 102.43 3.29, 100.03 0.54 C97.64 -2.2, 91.1 -4.75, 86.56 -6.46 C82.01 -8.16, 78.1 -8.99, 72.78 -9.69 C67.45 -10.4, 59.58 -10.52, 54.61 -10.69 C49.65 -10.87, 49.2 -11.26, 42.98 -10.75 C36.77 -10.24, 24.29 -9.39, 17.32 -7.63 C10.36 -5.87, 4.26 -1.54, 1.19 -0.18 M-1.49 -0.51 C-1.5 13.43, 0.25 66.43, 0.54 82.34 C0.82 98.26, -1.93 91.55, 0.23 94.97 C2.39 98.38, 8.04 100.86, 13.53 102.83 C19.01 104.79, 27.06 106.11, 33.14 106.77 C39.22 107.42, 44.02 107.02, 50.02 106.77 C56.02 106.52, 63.59 105.89, 69.13 105.27 C74.67 104.65, 78.27 104.45, 83.25 103.05 C88.23 101.64, 95.89 100.65, 99.02 96.86 C102.16 93.08, 101.75 94.73, 102.06 80.33 C102.38 65.93, 101.52 23.73, 100.94 10.44 C100.35 -2.85, 101.01 3.54, 98.56 0.59 C96.12 -2.37, 90.73 -5.56, 86.27 -7.29 C81.8 -9.02, 77 -9.14, 71.75 -9.78 C66.49 -10.42, 59.39 -11.2, 54.74 -11.14 C50.09 -11.08, 49.78 -9.62, 43.84 -9.42 C37.91 -9.23, 26.35 -11.57, 19.13 -9.99 C11.91 -8.4, 3.62 -1.76, 0.53 0.09" stroke="#364fc7" stroke-width="1" fill="none"></path></g></g><mask></mask><g stroke-linecap="round" transform="translate(3166.8572469698665 598.9847784784306) rotate(0 50.62648340191481 13.76508157621231)"><path d="M47.59 -0.41 C56.72 -0.82, 69.24 0.2, 77.45 1.68 C85.67 3.17, 93.29 5.98, 96.88 8.51 C100.47 11.04, 101.35 14.19, 98.99 16.87 C96.64 19.56, 90.45 22.72, 82.76 24.6 C75.07 26.48, 62.85 27.91, 52.85 28.15 C42.86 28.39, 30.89 27.45, 22.81 26.02 C14.72 24.59, 7.71 22.05, 4.36 19.57 C1 17.09, 0.22 13.83, 2.68 11.11 C5.14 8.39, 11.18 5.09, 19.13 3.26 C27.08 1.42, 45.07 0.53, 50.39 0.1 C55.71 -0.34, 51.01 0.52, 51.04 0.65 M39.02 1.06 C47.66 0.12, 60.11 -0.32, 69.38 0.54 C78.66 1.39, 89.15 3.75, 94.68 6.19 C100.21 8.63, 103.59 12.43, 102.55 15.16 C101.5 17.88, 94.98 20.4, 88.41 22.54 C81.83 24.68, 72.72 27.2, 63.08 28.01 C53.45 28.83, 40.15 28.45, 30.61 27.43 C21.08 26.42, 11.21 24.63, 5.9 21.91 C0.58 19.2, -2.11 14.12, -1.29 11.15 C-0.47 8.17, 4.19 6.07, 10.81 4.04 C17.44 2.01, 33.97 -0.29, 38.46 -1.03 C42.96 -1.78, 37.66 -0.91, 37.79 -0.42" stroke="none" stroke-width="0" fill="#ffffff"></path><path d="M40.11 -0.4 C49.12 -1.01, 62.31 0.25, 71.45 1.46 C80.59 2.68, 89.95 4.59, 94.97 6.9 C99.99 9.21, 102.6 12.54, 101.55 15.32 C100.5 18.1, 95.43 21.53, 88.66 23.57 C81.89 25.62, 70.71 27.21, 60.93 27.6 C51.15 27.99, 39.13 27.09, 29.97 25.92 C20.82 24.75, 10.84 22.99, 6.01 20.6 C1.18 18.21, -0.14 14.31, 1 11.56 C2.14 8.81, 5.24 6.05, 12.86 4.08 C20.47 2.11, 39.93 0.4, 46.68 -0.28 C53.42 -0.95, 53.26 -0.11, 53.32 0.01 M70.83 2 C79.28 2.92, 89.41 4.54, 94.27 6.91 C99.12 9.28, 101.27 13.56, 99.97 16.21 C98.67 18.86, 93.26 21.06, 86.48 22.83 C79.69 24.6, 68.78 26.14, 59.26 26.81 C49.73 27.48, 38.07 27.93, 29.34 26.86 C20.61 25.79, 11.74 22.9, 6.87 20.4 C2 17.9, -0.86 14.39, 0.12 11.85 C1.11 9.32, 6.03 7.3, 12.78 5.2 C19.53 3.1, 30.91 -0.04, 40.61 -0.76 C50.31 -1.49, 65.55 0.67, 70.97 0.85 C76.39 1.04, 73.18 -0.17, 73.15 0.33" stroke="#364fc7" stroke-width="1" fill="none"></path></g><g transform="translate(3168.852473972034 718.9847784784286) rotate(0 49.5 12.5)"><text x="49.5" y="0" font-family="Virgil, Segoe UI Emoji" font-size="20px" fill="#000000" text-anchor="middle" style="white-space: pre;" direction="ltr" dominant-baseline="text-before-edge">Database</text></g><g stroke-linecap="round"><g transform="translate(3211.439721777031 828.7716748664441) rotate(0 0.46169309999550023 -39.57489767002221)"><path d="M1.6 1.36 C2.17 -11.89, 1.76 -67.35, 1.8 -80.51 M-0.98 -0.37 C-0.53 -13.28, -0.12 -65.95, 0.15 -78.27" stroke="#1e1e1e" stroke-width="1" fill="none"></path></g><g transform="translate(3211.439721777031 828.7716748664441) rotate(0 0.46169309999550023 -39.57489767002221)"><path d="M11.96 -48.39 C4.17 -55.04, 5.95 -61.08, 2.22 -82.16 M8.06 -48.69 C6.93 -58.55, 4.98 -67.12, -1.65 -78.29" stroke="#1e1e1e" stroke-width="1" fill="none"></path></g><g transform="translate(3211.439721777031 828.7716748664441) rotate(0 0.46169309999550023 -39.57489767002221)"><path d="M-8.56 -48.68 C-11.42 -55.49, -4.71 -61.46, 2.22 -82.16 M-12.46 -48.98 C-7.8 -58.98, -3.95 -67.48, -1.65 -78.29" stroke="#1e1e1e" stroke-width="1" fill="none"></path></g></g><mask></mask><g stroke-linecap="round" transform="translate(3048.6302766704994 844.8585461287892) rotate(0 173.21350873569918 57.1195418313348)"><path d="M28.56 0 M28.56 0 C122.65 2.35, 224.46 3.06, 317.87 0 M28.56 0 C134.96 2.26, 241.31 3.63, 317.87 0 M317.87 0 C334.25 -0.34, 348.96 13, 346.43 28.56 M317.87 0 C340.1 -1.03, 343.83 13.87, 346.43 28.56 M346.43 28.56 C351.07 38.79, 351.46 51.39, 346.43 85.68 M346.43 28.56 C348.98 50.5, 348.23 69.93, 346.43 85.68 M346.43 85.68 C349.33 101.64, 337.56 113.92, 317.87 114.24 M346.43 85.68 C347.68 109.24, 333.59 114.13, 317.87 114.24 M317.87 114.24 C239 116.93, 158.52 116.3, 28.56 114.24 M317.87 114.24 C260.09 119.49, 200.73 119.39, 28.56 114.24 M28.56 114.24 C6.99 112.98, 2.69 104.37, 0 85.68 M28.56 114.24 C5.63 112.01, -0.05 107.82, 0 85.68 M0 85.68 C-3.26 61.72, 3.41 42.8, 0 28.56 M0 85.68 C0.53 70.06, -0.2 58.81, 0 28.56 M0 28.56 C2.58 9.49, 11.81 -1.66, 28.56 0 M0 28.56 C-1.52 6.13, 12.63 -3.64, 28.56 0" stroke="#1e1e1e" stroke-width="1" fill="none"></path></g><g transform="translate(3061.8163928280937 885.1438335065257) rotate(0 160.47389221191406 32.18935801911641)"><text x="160.47389221191406" y="0" font-family="Virgil, Segoe UI Emoji" font-size="25.75148641529314px" fill="#1e1e1e" text-anchor="middle" style="white-space: pre;" direction="ltr" dominant-baseline="text-before-edge">Short lived microservices </text><text x="160.47389221191406" y="32.189358019116426" font-family="Virgil, Segoe UI Emoji" font-size="25.75148641529314px" fill="#1e1e1e" text-anchor="middle" style="white-space: pre;" direction="ltr" dominant-baseline="text-before-edge">(tasks)</text></g><g stroke-linecap="round"><g transform="translate(3033.933843288385 894.882786043863) rotate(0 54.38965601441487 109.74314671129673)"><path d="M-0.11 2.34 C0.63 34.89, -13.85 159.59, 5.08 194.54 C24.02 229.48, 95.81 209.06, 113.49 212.02 M-3.61 1.14 C-2.12 34.09, -9.23 161.58, 9.99 197.2 C29.21 232.83, 94.96 211.97, 111.72 214.9" stroke="#1e1e1e" stroke-width="1" fill="none"></path></g><g transform="translate(3033.933843288385 894.882786043863) rotate(0 54.38965601441487 109.74314671129673)"><path d="M87.57 222.97 C90.66 223.14, 101.51 215.95, 111.49 214.66 M83.2 228.73 C93.93 221.33, 104.13 216.92, 113.69 213.5" stroke="#1e1e1e" stroke-width="1" fill="none"></path></g><g transform="translate(3033.933843288385 894.882786043863) rotate(0 54.38965601441487 109.74314671129673)"><path d="M86.28 202.49 C89.68 209.29, 100.94 208.73, 111.49 214.66 M81.91 208.25 C93.32 208.6, 104.01 211.92, 113.69 213.5" stroke="#1e1e1e" stroke-width="1" fill="none"></path></g></g><mask></mask><g transform="translate(3162.971405046632 1096.913996796319) rotate(0 69.34199523925781 17.5)"><text x="69.34199523925781" y="0" font-family="Virgil, Segoe UI Emoji" font-size="28px" fill="#1e1e1e" text-anchor="middle" style="white-space: pre;" direction="ltr" dominant-baseline="text-before-edge">15 * * * *</text></g><g stroke-linecap="round"><g transform="translate(3313.863148857645 1113.092209634701) rotate(0 51.61633386754602 -110.2471240566631)"><path d="M0.92 -2.66 C16.93 -7.15, 82.5 10.8, 98.49 -25.92 C114.49 -62.65, 97.16 -190.44, 96.87 -223.02 M-2.03 2.07 C13.35 -2.02, 79.85 15.01, 95.99 -22.16 C112.12 -59.33, 94.62 -188.14, 94.79 -220.94" stroke="#1e1e1e" stroke-width="1" fill="none"></path></g><g transform="translate(3313.863148857645 1113.092209634701) rotate(0 51.61633386754602 -110.2471240566631)"><path d="M103.04 -194.17 C102.34 -204.7, 94.62 -215.44, 94.39 -218.77 M108.47 -195.08 C103.33 -201.46, 101.04 -208.19, 94.64 -220.22" stroke="#1e1e1e" stroke-width="1" fill="none"></path></g><g transform="translate(3313.863148857645 1113.092209634701) rotate(0 51.61633386754602 -110.2471240566631)"><path d="M82.56 -192.85 C89.74 -204.02, 89.93 -215.27, 94.39 -218.77 M87.99 -193.77 C88.82 -200.56, 92.5 -207.67, 94.64 -220.22" stroke="#1e1e1e" stroke-width="1" fill="none"></path></g></g><mask></mask><g stroke-linecap="round" transform="translate(2612.8584267016595 707.270314732147) rotate(0 173.21350873569918 57.1195418313348)"><path d="M28.56 0 M28.56 0 C138.11 1.74, 251.96 1.26, 317.87 0 M28.56 0 C97.49 -1.24, 168.41 -0.07, 317.87 0 M317.87 0 C337.33 2.76, 345.88 9.32, 346.43 28.56 M317.87 0 C341.46 1.75, 348.65 12.56, 346.43 28.56 M346.43 28.56 C343.77 47.28, 346.79 59.45, 346.43 85.68 M346.43 28.56 C347.49 47.04, 346.17 69.5, 346.43 85.68 M346.43 85.68 C344.73 104.48, 338.74 113.55, 317.87 114.24 M346.43 85.68 C349.6 107.22, 339.31 118.64, 317.87 114.24 M317.87 114.24 C214.03 114.21, 112.03 112.94, 28.56 114.24 M317.87 114.24 C250.96 115.83, 183.74 114.48, 28.56 114.24 M28.56 114.24 C7.12 112.69, 1.58 105.79, 0 85.68 M28.56 114.24 C6.33 117.18, -4.58 106.63, 0 85.68 M0 85.68 C-0.34 59.97, 1.5 41.63, 0 28.56 M0 85.68 C-2.85 72.01, 0.65 60.89, 0 28.56 M0 28.56 C-2.59 9.75, 7.42 -1.87, 28.56 0 M0 28.56 C-0.96 8.22, 5.66 -1.19, 28.56 0" stroke="#1e1e1e" stroke-width="1" fill="none"></path></g><g transform="translate(2743.052469800172 748.2951775539229) rotate(0 43.465965270996094 16.094679009558263)"><text x="43.465965270996094" y="0" font-family="Virgil, Segoe UI Emoji" font-size="25.75148641529314px" fill="#1e1e1e" text-anchor="middle" style="white-space: pre;" direction="ltr" dominant-baseline="text-before-edge">Service</text></g><g stroke-linecap="round"><g transform="translate(2598.3158531592544 765.1906655438017) rotate(0 -65.50858431407232 -49.12573608744606)"><path d="M1.8 1.6 C-20.32 -14.95, -109.01 -83.13, -131.78 -99.85 M-0.66 0 C-23.05 -16.05, -110.09 -80.58, -132.82 -96.45" stroke="#1e1e1e" stroke-width="1" fill="none"></path></g><g transform="translate(2598.3158531592544 765.1906655438017) rotate(0 -65.50858431407232 -49.12573608744606)"><path d="M-101.68 -85.12 C-114.23 -91.79, -122.32 -90.02, -131.97 -94.64 M-102.32 -89.27 C-111.96 -91.57, -118.1 -93.5, -134.22 -97.71" stroke="#1e1e1e" stroke-width="1" fill="none"></path></g><g transform="translate(2598.3158531592544 765.1906655438017) rotate(0 -65.50858431407232 -49.12573608744606)"><path d="M-113.69 -68.48 C-122.14 -80.89, -126.2 -84.71, -131.97 -94.64 M-114.34 -72.64 C-120.81 -79.22, -123.77 -85.56, -134.22 -97.71" stroke="#1e1e1e" stroke-width="1" fill="none"></path></g></g><mask></mask><g stroke-linecap="round"><g transform="translate(2970.99633642102 569.0965705326021) rotate(0 92.88248233954255 42.64061001964785)"><path d="M-1.99 -0.38 C29.14 14.68, 156.34 73.92, 187.75 88.34 M2.13 -3.05 C32.69 11.29, 153.22 68.44, 184.87 83.67" stroke="#1e1e1e" stroke-width="1" fill="none"></path></g><g transform="translate(2970.99633642102 569.0965705326021) rotate(0 92.88248233954255 42.64061001964785)"><path d="M154.47 79.1 C165.87 78.73, 172.67 85.18, 185.8 80.56 M154.94 79.8 C164.88 80.32, 176.47 84.38, 186.4 81.8" stroke="#1e1e1e" stroke-width="1" fill="none"></path></g><g transform="translate(2970.99633642102 569.0965705326021) rotate(0 92.88248233954255 42.64061001964785)"><path d="M163.31 60.58 C171.48 66.28, 175.32 78.93, 185.8 80.56 M163.78 61.28 C170.48 68.69, 178.79 79.65, 186.4 81.8" stroke="#1e1e1e" stroke-width="1" fill="none"></path></g></g><mask></mask><g stroke-linecap="round"><g transform="translate(2969.27459711333 766.0715554221531) rotate(0 94.97681403216575 -55.99317409512378)"><path d="M-0.92 1.84 C30.66 -16.54, 159.26 -90.28, 190.87 -109.14 M3.78 0.38 C34.87 -19.01, 156.95 -95.59, 188.74 -113.83" stroke="#1e1e1e" stroke-width="1" fill="none"></path></g><g transform="translate(2969.27459711333 766.0715554221531) rotate(0 94.97681403216575 -55.99317409512378)"><path d="M172.55 -90.19 C177.15 -101.27, 180.64 -108.19, 190.36 -112.9 M170.61 -90.09 C177.91 -99.21, 182.13 -107.29, 189.74 -112.17" stroke="#1e1e1e" stroke-width="1" fill="none"></path></g><g transform="translate(2969.27459711333 766.0715554221531) rotate(0 94.97681403216575 -55.99317409512378)"><path d="M161.94 -107.75 C170.4 -112.61, 177.61 -113.38, 190.36 -112.9 M160 -107.65 C170.94 -110.61, 178.9 -112.49, 189.74 -112.17" stroke="#1e1e1e" stroke-width="1" fill="none"></path></g></g><mask></mask><g stroke-linecap="round" transform="translate(1240.1350282364365 1230.133568778745) rotate(0 127.25511725166052 107.1009653484823)"><path d="M21.36 90.12 C21.36 90.12, 21.36 90.12, 21.36 90.12 M21.36 90.12 C21.36 90.12, 21.36 90.12, 21.36 90.12 M11.26 107.84 C19.38 99.53, 26.43 93.3, 40.13 74.63 M11.26 107.84 C20.03 96.14, 31.43 81.74, 40.13 74.63 M11 114.24 C32.1 92.89, 50.91 72.2, 59.55 58.39 M11 114.24 C27.61 93.81, 45.78 74.15, 59.55 58.39 M13.36 117.62 C35.54 85.12, 65.19 59.39, 78.31 42.9 M13.36 117.62 C24.56 101.68, 41.44 85.16, 78.31 42.9 M16.38 120.24 C48.84 89.29, 75.44 52.48, 97.08 27.41 M16.38 120.24 C38.84 93.88, 66.35 64.51, 97.08 27.41 M19.4 122.87 C50.3 87.27, 89.45 40.55, 115.84 11.92 M19.4 122.87 C45.56 93.48, 73.92 60.47, 115.84 11.92 M21.76 126.24 C51.77 93.35, 82.32 57.05, 121.48 11.53 M21.76 126.24 C58.45 84.21, 94.68 45.01, 121.48 11.53 M24.78 128.87 C64.29 85.27, 106.18 39.59, 129.75 8.12 M24.78 128.87 C59.88 89.94, 90.98 56.41, 129.75 8.12 M27.8 131.49 C65.39 77.97, 110.89 30.73, 134.74 8.48 M27.8 131.49 C59.76 98.35, 90.47 62.46, 134.74 8.48 M30.82 134.12 C57.56 92.68, 96.62 59.53, 137.76 11.1 M30.82 134.12 C54.13 104.76, 80.37 75.25, 137.76 11.1 M33.84 136.74 C67.8 97.48, 104.82 48.48, 141.43 12.97 M33.84 136.74 C58.25 105.66, 88.91 76.62, 141.43 12.97 M37.51 138.61 C75.79 90.44, 120.76 45.25, 144.45 15.59 M37.51 138.61 C81.53 94.9, 120.37 48.71, 144.45 15.59 M40.53 141.24 C59.18 116.91, 86.07 90.89, 147.47 18.22 M40.53 141.24 C68.59 110.98, 94.23 80.2, 147.47 18.22 M43.55 143.86 C77.29 102.8, 115.11 60.88, 151.14 20.09 M43.55 143.86 C70.13 115.12, 92.19 87.38, 151.14 20.09 M46.57 146.48 C82 112.49, 112.41 71.18, 154.16 22.71 M46.57 146.48 C89.22 97.19, 128.53 47.08, 154.16 22.71 M49.59 149.11 C70.71 120.68, 99.13 91.7, 157.18 25.34 M49.59 149.11 C75.99 119.82, 104.93 85.99, 157.18 25.34 M52.61 151.73 C90.33 113.12, 119.06 72.53, 160.86 27.2 M52.61 151.73 C76.13 126.41, 95.86 104.22, 160.86 27.2 M55.63 154.36 C82.35 122.75, 107.68 94.94, 163.88 29.83 M55.63 154.36 C93.43 114.12, 128.45 73.35, 163.88 29.83 M58.65 156.98 C82.4 127.96, 103.55 103.15, 166.89 32.45 M58.65 156.98 C97.69 110.29, 140.1 61.38, 166.89 32.45 M61.66 159.6 C86.41 133.56, 116.55 101.33, 169.91 35.08 M61.66 159.6 C92.28 123.13, 125.16 85.63, 169.91 35.08 M65.34 161.47 C93.66 119.53, 127.46 84.47, 172.93 37.7 M65.34 161.47 C109.7 111.95, 153.11 63.15, 172.93 37.7 M68.36 164.1 C97.46 131.32, 122.99 104.25, 175.95 40.33 M68.36 164.1 C105.98 119.44, 146.64 74.7, 175.95 40.33 M71.38 166.72 C94.98 139.11, 122.51 111.02, 178.97 42.95 M71.38 166.72 C107.03 123.12, 141.29 81.63, 178.97 42.95 M74.4 169.35 C102.36 141.75, 120.05 114.24, 181.99 45.57 M74.4 169.35 C112.58 125.43, 148.33 85.72, 181.99 45.57 M77.41 171.97 C106.98 138.26, 139.16 105.06, 185.01 48.2 M77.41 171.97 C97.94 144.93, 121.54 121.63, 185.01 48.2 M80.43 174.6 C119.6 123.21, 166.33 75.56, 188.03 50.82 M80.43 174.6 C123.12 126.69, 163.1 76.5, 188.03 50.82 M83.45 177.22 C121.69 134, 163.64 89.68, 191.05 53.45 M83.45 177.22 C113.2 148.27, 141.05 115.02, 191.05 53.45 M86.47 179.84 C119.52 145.76, 151.08 104.36, 194.06 56.07 M86.47 179.84 C118.32 140.59, 152.66 104.23, 194.06 56.07 M89.49 182.47 C116.03 152.51, 142.29 123.22, 197.08 58.7 M89.49 182.47 C121.03 147.57, 151.38 109.02, 197.08 58.7 M93.16 184.34 C122.94 151.56, 155.18 116.11, 200.1 61.32 M93.16 184.34 C114 157.67, 138.67 132.28, 200.1 61.32 M96.18 186.96 C142.44 137.04, 182.1 92.41, 203.12 63.94 M96.18 186.96 C127.87 150.94, 161.64 114.35, 203.12 63.94 M99.2 189.59 C132.75 150.32, 163.88 112.02, 206.14 66.57 M99.2 189.59 C127.68 159.71, 154.91 125.07, 206.14 66.57 M102.22 192.21 C135.64 159.55, 156.84 129.52, 209.16 69.19 M102.22 192.21 C126.4 166.36, 149.76 139.17, 209.16 69.19 M105.24 194.83 C136.34 154.31, 177.66 114.51, 212.18 71.82 M105.24 194.83 C141.47 154.4, 179.79 112.48, 212.18 71.82 M108.26 197.46 C146.4 155.88, 183.59 109.53, 215.2 74.44 M108.26 197.46 C132.24 169.41, 155.43 141.65, 215.2 74.44 M111.28 200.08 C145.97 151.65, 186.78 107, 218.22 77.07 M111.28 200.08 C148.3 159.95, 188.75 117.03, 218.22 77.07 M114.95 201.95 C150.53 156.05, 194.16 118.07, 221.23 79.69 M114.95 201.95 C141.13 170.58, 171.04 137.74, 221.23 79.69 M118.63 203.82 C160.82 154.58, 199.24 107.61, 224.25 82.31 M118.63 203.82 C151.92 159.11, 190.95 119.92, 224.25 82.31 M122.3 205.69 C148.92 181.49, 172.03 152.4, 227.27 84.94 M122.3 205.69 C144.93 179.67, 163.42 156.74, 227.27 84.94 M125.98 207.56 C150.61 176.79, 186.17 144.41, 230.29 87.56 M125.98 207.56 C167.23 159.8, 205.52 113.01, 230.29 87.56 M131.62 207.17 C154.55 184.63, 178 158.55, 233.31 90.19 M131.62 207.17 C170.35 163.13, 209.61 119.19, 233.31 90.19 M135.95 208.28 C159.49 184.72, 177.58 160.9, 236.33 92.81 M135.95 208.28 C165.09 172.27, 195.48 138.11, 236.33 92.81 M150.78 197.32 C184.78 163.43, 219.13 119.34, 239.35 95.44 M150.78 197.32 C170.79 174.56, 191.71 151.38, 239.35 95.44 M170.2 181.08 C194.08 153.59, 219.89 122.13, 241.71 98.81 M170.2 181.08 C195.35 154.76, 219.76 127.15, 241.71 98.81 M189.62 164.83 C204.79 151.6, 217.25 132.54, 244.73 101.44 M189.62 164.83 C202.42 150.66, 218.07 136.24, 244.73 101.44 M209.04 148.59 C224.1 131.06, 238 122.52, 247.09 104.82 M209.04 148.59 C217.15 136.84, 227.34 130.13, 247.09 104.82" stroke="#ffec99" stroke-width="0.5" fill="none"></path><path d="M160 27 M160 27 C176.93 40.95, 190.67 52.29, 222.51 81 M160 27 C174.13 37.95, 188.07 49.99, 222.51 81 M222.51 81 C253.31 105.37, 250.87 105.69, 222.51 135 M222.51 81 C251.57 112.44, 252 104.28, 222.51 135 M222.51 135 C207.03 148.47, 183.47 166.28, 160 187.2 M222.51 135 C202.16 154.24, 182.37 171.24, 160 187.2 M160 187.2 C125.1 210.39, 128.86 213.85, 96 187.2 M160 187.2 C123.94 217.87, 126.22 213.27, 96 187.2 M96 187.2 C67.82 170.48, 44.23 145.02, 32 135 M96 187.2 C78.84 172.17, 59.22 155.71, 32 135 M32 135 C0.56 104.37, -0.34 105.69, 32 81 M32 135 C-2.49 111.63, -1.26 105.85, 32 81 M32 81 C57.03 58.77, 84.25 35.31, 96 27 M32 81 C53.17 62.87, 76.46 42.44, 96 27 M96 27 C126.79 3.92, 127.98 0.44, 160 27 M96 27 C125.62 4.01, 123.61 -3.54, 160 27" stroke="#1e1e1e" stroke-width="1" fill="none"></path></g><g transform="translate(1296.690209575012 1324.7345341272276) rotate(0 70.69993591308594 12.5)"><text x="70.69993591308594" y="0" font-family="Virgil, Segoe UI Emoji" font-size="20px" fill="#1e1e1e" text-anchor="middle" style="white-space: pre;" direction="ltr" dominant-baseline="text-before-edge">Mock Producer</text></g><g stroke-linecap="round" transform="translate(1460.8166725848569 1228.8559001028998) rotate(0 127.25511725166052 107.1009653484823)"><path d="M21.36 90.12 C21.36 90.12, 21.36 90.12, 21.36 90.12 M21.36 90.12 C21.36 90.12, 21.36 90.12, 21.36 90.12 M11.26 107.84 C19.52 97.22, 33.38 84.05, 40.13 74.63 M11.26 107.84 C19.31 98.13, 29.19 89.23, 40.13 74.63 M11 114.24 C22.97 93.35, 38.81 81.83, 59.55 58.39 M11 114.24 C31.58 92.62, 48.49 70.85, 59.55 58.39 M13.36 117.62 C31.15 97.83, 47.94 76.61, 78.31 42.9 M13.36 117.62 C31.52 93.55, 51.65 69.27, 78.31 42.9 M16.38 120.24 C30.42 104.01, 48.29 83.25, 97.08 27.41 M16.38 120.24 C48.8 83.67, 79.98 47.08, 97.08 27.41 M19.4 122.87 C39.54 100.88, 57.3 74.83, 115.84 11.92 M19.4 122.87 C48.21 89.35, 80.14 54.72, 115.84 11.92 M21.76 126.24 C55.13 86.73, 85.48 50.53, 121.48 11.53 M21.76 126.24 C45.63 100.14, 65.45 77.6, 121.48 11.53 M24.78 128.87 C52.87 97.11, 79.55 69.37, 129.75 8.12 M24.78 128.87 C55.63 95.77, 89.32 59.39, 129.75 8.12 M27.8 131.49 C64.92 91.21, 100.98 47.95, 134.74 8.48 M27.8 131.49 C55.17 100.79, 84.56 67.36, 134.74 8.48 M30.82 134.12 C67.01 96.9, 95.62 55.45, 137.76 11.1 M30.82 134.12 C74.08 86.12, 114.04 38.04, 137.76 11.1 M33.84 136.74 C73.28 86.11, 114.17 38.84, 141.43 12.97 M33.84 136.74 C63.37 98.89, 98.81 60.21, 141.43 12.97 M37.51 138.61 C72.52 100.22, 106.74 57.27, 144.45 15.59 M37.51 138.61 C66.28 107.7, 92.47 74.83, 144.45 15.59 M40.53 141.24 C76.79 105.23, 114.68 59.7, 147.47 18.22 M40.53 141.24 C85.49 93.13, 128.09 48.07, 147.47 18.22 M43.55 143.86 C63.44 113.86, 91.42 92.38, 151.14 20.09 M43.55 143.86 C75.27 109.16, 103.14 71.77, 151.14 20.09 M46.57 146.48 C69.55 119.12, 92.37 94.25, 154.16 22.71 M46.57 146.48 C78.76 106.57, 111.99 69.96, 154.16 22.71 M49.59 149.11 C82.43 116.99, 108.68 80.85, 157.18 25.34 M49.59 149.11 C87.42 105.71, 123.34 61.91, 157.18 25.34 M52.61 151.73 C82.41 111.05, 116.05 78.01, 160.86 27.2 M52.61 151.73 C92.51 106.46, 128.57 62.61, 160.86 27.2 M55.63 154.36 C78.6 132.3, 106.18 101.9, 163.88 29.83 M55.63 154.36 C83.44 122.48, 112.62 85.55, 163.88 29.83 M58.65 156.98 C105.76 107.6, 145.33 57.22, 166.89 32.45 M58.65 156.98 C97.28 111.31, 137.61 65.17, 166.89 32.45 M61.66 159.6 C85.7 126.84, 114.18 91.89, 169.91 35.08 M61.66 159.6 C99.35 112.94, 140.98 63.86, 169.91 35.08 M65.34 161.47 C98.32 124.93, 130.08 86.16, 172.93 37.7 M65.34 161.47 C98.23 127.97, 126.51 94.26, 172.93 37.7 M68.36 164.1 C97.02 134.87, 125.59 106.03, 175.95 40.33 M68.36 164.1 C102.66 122.51, 136.69 82.21, 175.95 40.33 M71.38 166.72 C91.33 141.05, 118.46 116.83, 178.97 42.95 M71.38 166.72 C108.5 125.73, 145.45 84.85, 178.97 42.95 M74.4 169.35 C104.65 140.64, 128.06 110.56, 181.99 45.57 M74.4 169.35 C107.58 137.83, 135.33 102.05, 181.99 45.57 M77.41 171.97 C111.98 134.02, 143.73 104.63, 185.01 48.2 M77.41 171.97 C110.79 131.79, 145.63 94.27, 185.01 48.2 M80.43 174.6 C128.38 128.62, 163.91 74.12, 188.03 50.82 M80.43 174.6 C114.96 133.21, 145.54 95.55, 188.03 50.82 M83.45 177.22 C106.88 146.78, 137.78 113.32, 191.05 53.45 M83.45 177.22 C124.61 134.51, 161.65 89.26, 191.05 53.45 M86.47 179.84 C119.72 135.44, 156.78 93.91, 194.06 56.07 M86.47 179.84 C114.84 147.6, 143.15 113.99, 194.06 56.07 M89.49 182.47 C122.22 145.81, 149.08 115.02, 197.08 58.7 M89.49 182.47 C109.6 157.51, 133.92 130.62, 197.08 58.7 M93.16 184.34 C115.97 157.47, 146.48 131.11, 200.1 61.32 M93.16 184.34 C116.38 155.1, 137.26 128.52, 200.1 61.32 M96.18 186.96 C123.13 156.36, 153.38 127.9, 203.12 63.94 M96.18 186.96 C123.49 154.82, 152.62 121.59, 203.12 63.94 M99.2 189.59 C123.8 162.23, 140.64 135.79, 206.14 66.57 M99.2 189.59 C124.4 158.04, 148.32 128.17, 206.14 66.57 M102.22 192.21 C133.48 162.29, 157.11 129.74, 209.16 69.19 M102.22 192.21 C138.09 154.52, 170.67 110.44, 209.16 69.19 M105.24 194.83 C128.41 174.79, 149.4 143.26, 212.18 71.82 M105.24 194.83 C135.71 158.62, 163.57 124.27, 212.18 71.82 M108.26 197.46 C146.29 155.84, 181.33 109.65, 215.2 74.44 M108.26 197.46 C133.95 172.04, 152.74 147.21, 215.2 74.44 M111.28 200.08 C145.02 153.27, 184.52 115.29, 218.22 77.07 M111.28 200.08 C138.94 169.96, 165.6 136.94, 218.22 77.07 M114.95 201.95 C132.65 180.31, 156.39 151.28, 221.23 79.69 M114.95 201.95 C152.8 154.93, 193.41 105.75, 221.23 79.69 M118.63 203.82 C155.4 170.96, 187.14 132.85, 224.25 82.31 M118.63 203.82 C152.85 164.76, 188.75 127.14, 224.25 82.31 M122.3 205.69 C148.4 175.26, 173 146.37, 227.27 84.94 M122.3 205.69 C147.45 172.31, 175.21 141.94, 227.27 84.94 M125.98 207.56 C164.6 162.34, 200.46 121.77, 230.29 87.56 M125.98 207.56 C150.44 180.58, 171.31 158.57, 230.29 87.56 M131.62 207.17 C163.63 174.81, 193.54 133.8, 233.31 90.19 M131.62 207.17 C165.36 167.24, 201.61 125.47, 233.31 90.19 M135.95 208.28 C171.49 162.8, 207.67 121.61, 236.33 92.81 M135.95 208.28 C171.98 169.47, 204.99 128.11, 236.33 92.81 M150.78 197.32 C180.13 158.3, 212.8 126.44, 239.35 95.44 M150.78 197.32 C181.07 164.2, 208.31 132.64, 239.35 95.44 M170.2 181.08 C196.58 151.92, 225.18 118.74, 241.71 98.81 M170.2 181.08 C195.37 153.59, 217.05 127.56, 241.71 98.81 M189.62 164.83 C214.03 138.57, 236.32 110.82, 244.73 101.44 M189.62 164.83 C207.87 144.78, 226.16 120.55, 244.73 101.44 M209.04 148.59 C227.85 132, 242.33 114.8, 247.09 104.82 M209.04 148.59 C224.6 131.31, 236.96 116.21, 247.09 104.82" stroke="#ffec99" stroke-width="0.5" fill="none"></path><path d="M160 27 M160 27 C180.77 49.54, 206.42 69.83, 222.51 81 M160 27 C176.65 42.57, 194.85 58.78, 222.51 81 M222.51 81 C251.39 111.51, 252.22 109.04, 222.51 135 M222.51 81 C251.58 110.71, 253.22 109.92, 222.51 135 M222.51 135 C206.14 146.93, 190.67 154.3, 160 187.2 M222.51 135 C201.89 153.5, 177.28 175.37, 160 187.2 M160 187.2 C125.29 211.03, 124.11 215.41, 96 187.2 M160 187.2 C128.82 211.73, 124.93 217.88, 96 187.2 M96 187.2 C82.64 175.7, 65.67 160.51, 32 135 M96 187.2 C68.5 165.26, 43.69 146.22, 32 135 M32 135 C0.85 111.71, -0.74 106.12, 32 81 M32 135 C0.16 106.47, 3.12 106.37, 32 81 M32 81 C49.83 68.16, 72.3 49.69, 96 27 M32 81 C53.46 62.7, 75.44 44.04, 96 27 M96 27 C125.18 1.78, 131.4 2.53, 160 27 M96 27 C131.55 -4.33, 125.68 3.86, 160 27" stroke="#1e1e1e" stroke-width="1" fill="none"></path></g><g transform="translate(1541.681836223237 1310.9568654513819) rotate(0 46.38995361328125 25)"><text x="46.38995361328125" y="0" font-family="Virgil, Segoe UI Emoji" font-size="20px" fill="#1e1e1e" text-anchor="middle" style="white-space: pre;" direction="ltr" dominant-baseline="text-before-edge">Simulated</text><text x="46.38995361328125" y="25" font-family="Virgil, Segoe UI Emoji" font-size="20px" fill="#1e1e1e" text-anchor="middle" style="white-space: pre;" direction="ltr" dominant-baseline="text-before-edge">Consumer</text></g><g stroke-linecap="round" transform="translate(894.4434873479659 1249.1319598474458) rotate(0 90.85241337089883 87.46373994185888)"><path d="M32 0 M32 0 C72.65 4.4, 108.94 3.52, 149.7 0 M32 0 C60.88 0.94, 89.23 -0.1, 149.7 0 M149.7 0 C170.94 -0.51, 181.78 14.39, 181.7 32 M149.7 0 C168.37 0.99, 182.25 10.23, 181.7 32 M181.7 32 C184.39 65.9, 182.85 104.14, 181.7 142.93 M181.7 32 C181.48 71.21, 180.84 112.44, 181.7 142.93 M181.7 142.93 C179.84 163.45, 173.47 171.61, 149.7 174.93 M181.7 142.93 C182.5 164.71, 174.63 172.96, 149.7 174.93 M149.7 174.93 C124.15 175.36, 92.86 174.28, 32 174.93 M149.7 174.93 C104.44 177.64, 58.15 176.11, 32 174.93 M32 174.93 C11.77 173.3, -1.66 164.86, 0 142.93 M32 174.93 C11.69 173.49, 3.39 167.24, 0 142.93 M0 142.93 C4.69 108.42, 0.6 69.59, 0 32 M0 142.93 C-0.26 119.21, -0.55 97.46, 0 32 M0 32 C0.84 9.44, 8.12 -0.69, 32 0 M0 32 C-2.24 7.72, 13.32 3.63, 32 0" stroke="#1e1e1e" stroke-width="1" fill="none"></path></g><g transform="translate(941.4359458848812 1324.0956997893045) rotate(0 43.859954833984375 12.5)"><text x="43.859954833984375" y="0" font-family="Virgil, Segoe UI Emoji" font-size="20px" fill="#1e1e1e" text-anchor="middle" style="white-space: pre;" direction="ltr" dominant-baseline="text-before-edge">Consumer</text></g><g stroke-linecap="round" transform="translate(1885.7371065643074 1249.1319598474458) rotate(0 90.85241337089883 87.46373994185888)"><path d="M32 0 M32 0 C55.3 -3.27, 84.26 2.25, 149.7 0 M32 0 C61.15 2.82, 91.72 2.77, 149.7 0 M149.7 0 C169.09 2.94, 180.79 8.57, 181.7 32 M149.7 0 C169.88 0.66, 177.55 8.93, 181.7 32 M181.7 32 C184.2 68.67, 183.19 106.17, 181.7 142.93 M181.7 32 C177.94 69.25, 180.44 107.52, 181.7 142.93 M181.7 142.93 C183.68 161.37, 174.49 171.64, 149.7 174.93 M181.7 142.93 C184.47 160.19, 170.14 170.79, 149.7 174.93 M149.7 174.93 C121.29 172.7, 94.37 174.18, 32 174.93 M149.7 174.93 C124.46 175.82, 98.54 173.43, 32 174.93 M32 174.93 C6.85 171.03, -2.67 162.72, 0 142.93 M32 174.93 C13.51 172.92, 0.29 161.39, 0 142.93 M0 142.93 C-1.07 113.62, 4.67 93.18, 0 32 M0 142.93 C1.52 117, 1.69 96.27, 0 32 M0 32 C-3.69 11.05, 7.65 -0.75, 32 0 M0 32 C4.14 13.14, 14.77 3, 32 0" stroke="#1e1e1e" stroke-width="1" fill="none"></path></g><g transform="translate(1933.9795651012228 1323.668101709216) rotate(0 42.609954833984375 12.5)"><text x="42.609954833984375" y="0" font-family="Virgil, Segoe UI Emoji" font-size="20px" fill="#1e1e1e" text-anchor="middle" style="white-space: pre;" direction="ltr" dominant-baseline="text-before-edge">Producer</text></g><g stroke-linecap="round"><g transform="translate(1090.5674989825675 1295.4445651965057) rotate(0 79.45006535164885 0.6873878935726907)"><path d="M0.75 1.49 C26.71 1.43, 129.12 -0.48, 155.63 -0.89 M-2.29 -0.17 C24.61 0.22, 134.24 1.96, 161.19 2.26" stroke="#1e1e1e" stroke-width="1" fill="none"></path></g><g transform="translate(1090.5674989825675 1295.4445651965057) rotate(0 79.45006535164885 0.6873878935726907)"><path d="M134.99 9.91 C139.98 12.81, 148.25 3.72, 162.66 3.41 M131.27 11.83 C141.97 8.47, 146.79 7.85, 160.44 0.98" stroke="#1e1e1e" stroke-width="1" fill="none"></path></g><g transform="translate(1090.5674989825675 1295.4445651965057) rotate(0 79.45006535164885 0.6873878935726907)"><path d="M135.28 -10.61 C140.1 -1.67, 148.3 -4.71, 162.66 3.41 M131.55 -8.69 C142 -6.85, 146.75 -2.27, 160.44 0.98" stroke="#1e1e1e" stroke-width="1" fill="none"></path></g></g><mask></mask><g transform="translate(1124.1174886991157 1261.5644206667794) rotate(0 37.4599609375 12.5)"><text x="37.4599609375" y="0" font-family="Virgil, Segoe UI Emoji" font-size="20px" fill="#1e1e1e" text-anchor="middle" style="white-space: pre;" direction="ltr" dominant-baseline="text-before-edge">request</text></g><g stroke-linecap="round"><g transform="translate(1247.2514219298118 1367.7312470310371) rotate(0 -76.66513019738613 0.5121313641965344)"><path d="M-1.08 -0.03 C-26.71 -0.05, -129.2 -0.1, -155.66 -0.06 M3.53 -2.51 C-22.14 -2.06, -130.57 2.55, -156.86 3.54" stroke="#1e1e1e" stroke-width="1" fill="none"></path></g><g transform="translate(1247.2514219298118 1367.7312470310371) rotate(0 -76.66513019738613 0.5121313641965344)"><path d="M-129.14 -5.11 C-135.66 -8.58, -141.77 1.06, -158.66 0.28 M-129.38 -9.47 C-139.79 -4.42, -150.15 -1.81, -158.29 2.92" stroke="#1e1e1e" stroke-width="1" fill="none"></path></g><g transform="translate(1247.2514219298118 1367.7312470310371) rotate(0 -76.66513019738613 0.5121313641965344)"><path d="M-128.32 15.39 C-135.05 7.12, -141.35 11.98, -158.66 0.28 M-128.56 11.03 C-138.86 8.87, -149.51 4.27, -158.29 2.92" stroke="#1e1e1e" stroke-width="1" fill="none"></path></g></g><mask></mask><g transform="translate(1127.1084036391803 1380.3461251381955) rotate(0 41.239952087402344 12.5)"><text x="41.239952087402344" y="0" font-family="Virgil, Segoe UI Emoji" font-size="20px" fill="#1e1e1e" text-anchor="middle" style="white-space: pre;" direction="ltr" dominant-baseline="text-before-edge">response</text></g><g stroke-linecap="round"><g transform="translate(1684.6423097622155 1286.7495141558584) rotate(0 92.4476608941759 0.9431962308589164)"><path d="M-0.56 -2.36 C30.52 -2.23, 153.04 -0.37, 184.16 0.16 M-4.31 2.54 C27.83 3.21, 157.8 5.01, 189.21 3.87" stroke="#1e1e1e" stroke-width="1" fill="none"></path></g><g transform="translate(1684.6423097622155 1286.7495141558584) rotate(0 92.4476608941759 0.9431962308589164)"><path d="M157.72 10.75 C167.45 11.48, 174.47 6.69, 187.18 1.07 M162.43 15.85 C171.38 9.38, 182.72 5.79, 188.99 3.82" stroke="#1e1e1e" stroke-width="1" fill="none"></path></g><g transform="translate(1684.6423097622155 1286.7495141558584) rotate(0 92.4476608941759 0.9431962308589164)"><path d="M157.58 -9.77 C167.25 -4.59, 174.3 -4.95, 187.18 1.07 M162.29 -4.67 C171.08 -3.44, 182.47 0.67, 188.99 3.82" stroke="#1e1e1e" stroke-width="1" fill="none"></path></g></g><mask></mask><g stroke-linecap="round"><g transform="translate(1866.6389564801048 1381.9854142393428) rotate(0 -95.92762109733849 0.07098187940437128)"><path d="M-0.37 -2.36 C-32.26 -2.49, -160.05 -2.54, -191.48 -1.69 M-4.02 2.53 C-34.99 2.81, -154.99 1.66, -186.06 1.02" stroke="#1e1e1e" stroke-width="1" fill="none"></path></g><g transform="translate(1866.6389564801048 1381.9854142393428) rotate(0 -95.92762109733849 0.07098187940437128)"><path d="M-161.09 -11.42 C-168.56 -5, -170.59 -5.26, -185.65 3.38 M-157.16 -7.35 C-168.64 -6.14, -180.35 -1.29, -184.09 0.88" stroke="#1e1e1e" stroke-width="1" fill="none"></path></g><g transform="translate(1866.6389564801048 1381.9854142393428) rotate(0 -95.92762109733849 0.07098187940437128)"><path d="M-161.38 9.1 C-168.63 9.46, -170.57 3.16, -185.65 3.38 M-157.45 13.17 C-168.64 6.27, -180.23 3.02, -184.09 0.88" stroke="#1e1e1e" stroke-width="1" fill="none"></path></g></g><mask></mask><g transform="translate(1744.9573285014085 1246.8229996945322) rotate(0 37.4599609375 12.5)"><text x="37.4599609375" y="0" font-family="Virgil, Segoe UI Emoji" font-size="20px" fill="#1e1e1e" text-anchor="middle" style="white-space: pre;" direction="ltr" dominant-baseline="text-before-edge">request</text></g><g transform="translate(1751.0295744435043 1345.5420054893689) rotate(0 41.239952087402344 12.5)"><text x="41.239952087402344" y="0" font-family="Virgil, Segoe UI Emoji" font-size="20px" fill="#1e1e1e" text-anchor="middle" style="white-space: pre;" direction="ltr" dominant-baseline="text-before-edge">response</text></g><g transform="translate(1431.353213190263 1417.1063142042553) rotate(0 42.51996612548828 12.5)"><text x="42.51996612548828" y="0" font-family="Virgil, Segoe UI Emoji" font-size="20px" fill="#1e1e1e" text-anchor="middle" style="white-space: pre;" direction="ltr" dominant-baseline="text-before-edge">contract</text></g><g stroke-linecap="round" transform="translate(877.6768508751902 1214.532592491703) rotate(0 609.4516704283797 125.96725260448989)"><path d="M32 0 M32 0 C344.69 5.7, 657.26 2.78, 1186.9 0 M32 0 C320.38 -6.24, 609.32 -5.69, 1186.9 0 M1186.9 0 C1206.22 0.13, 1218.89 10.33, 1218.9 32 M1186.9 0 C1207.12 -1.27, 1216.76 10.05, 1218.9 32 M1218.9 32 C1221.35 81.55, 1215.83 128.58, 1218.9 219.93 M1218.9 32 C1220.06 104.58, 1220.14 174.13, 1218.9 219.93 M1218.9 219.93 C1216.04 245.09, 1205.08 252.05, 1186.9 251.93 M1218.9 219.93 C1216.22 244.24, 1205.24 252.35, 1186.9 251.93 M1186.9 251.93 C850.27 242.3, 514.79 243.36, 32 251.93 M1186.9 251.93 C726.07 253.65, 266.4 253.96, 32 251.93 M32 251.93 C8.94 248.35, -1.93 240.2, 0 219.93 M32 251.93 C8.34 251.87, 1.2 238.46, 0 219.93 M0 219.93 C0.68 167.53, -1.19 114.6, 0 32 M0 219.93 C-1.75 152.16, -2.43 83.25, 0 32 M0 32 C0.77 12.83, 7.34 -1.01, 32 0 M0 32 C-2.19 11.77, 10.51 -3.85, 32 0" stroke="#1e1e1e" stroke-width="1" fill="none"></path></g><g stroke-linecap="round"><g transform="translate(881.1171323875551 1330.8901373323417) rotate(0 276.5749138282681 -198.850047395684)"><path d="M-0.43 -2.5 C-0.48 -37.01, -96.76 -138.83, 2.24 -204.36 C101.24 -269.88, 494.85 -363.68, 593.59 -395.65 M-4.1 2.32 C-4.74 -31.9, -100.4 -141.95, 0.11 -209 C100.63 -276.06, 499.94 -367.96, 598.98 -400.02" stroke="#1e1e1e" stroke-width="1" fill="none"></path></g><g transform="translate(881.1171323875551 1330.8901373323417) rotate(0 276.5749138282681 -198.850047395684)"><path d="M570.98 -382.3 C584.74 -393.14, 596.41 -398.45, 601.28 -397.26 M573.83 -381.08 C578.25 -387.55, 586 -390.04, 599.76 -399.96" stroke="#1e1e1e" stroke-width="1" fill="none"></path></g><g transform="translate(881.1171323875551 1330.8901373323417) rotate(0 276.5749138282681 -198.850047395684)"><path d="M565.5 -402.07 C581.79 -405.16, 595.61 -402.72, 601.28 -397.26 M568.35 -400.86 C574.39 -402.47, 583.46 -400.18, 599.76 -399.96" stroke="#1e1e1e" stroke-width="1" fill="none"></path></g></g><mask></mask><g stroke-linecap="round"><g transform="translate(2076.7089238271674 1335.0062954911912) rotate(0 -262.99416450641183 -200.43793963600717)"><path d="M-2.69 -1.29 C-0.93 -36.16, 108.34 -142.35, 12.77 -209.65 C-82.79 -276.94, -477.8 -372.84, -576.08 -405.05 M1.04 4.18 C2.21 -31.52, 106.9 -146.48, 10.41 -214.17 C-86.08 -281.86, -480.04 -369.71, -577.9 -401.98" stroke="#1e1e1e" stroke-width="1" fill="none"></path></g><g transform="translate(2076.7089238271674 1335.0062954911912) rotate(0 -262.99416450641183 -200.43793963600717)"><path d="M-549.84 -404.7 C-558.04 -404.07, -570.74 -404.34, -574.95 -403.1 M-546.32 -402.44 C-560.06 -402.23, -571.97 -402.51, -577.74 -401.58" stroke="#1e1e1e" stroke-width="1" fill="none"></path></g><g transform="translate(2076.7089238271674 1335.0062954911912) rotate(0 -262.99416450641183 -200.43793963600717)"><path d="M-555.31 -384.92 C-561.37 -391.67, -572.01 -399.42, -574.95 -403.1 M-551.78 -382.66 C-563.12 -390.28, -572.89 -398.33, -577.74 -401.58" stroke="#1e1e1e" stroke-width="1" fill="none"></path></g></g><mask></mask><g transform="translate(1330.9740536021018 1069.2789076782856) rotate(0 144.9279327392578 17.5)"><text x="144.9279327392578" y="0" font-family="Virgil, Segoe UI Emoji" font-size="28px" fill="#1e1e1e" text-anchor="middle" style="white-space: pre;" direction="ltr" dominant-baseline="text-before-edge">Integration &amp; Deploy</text></g><g stroke-linecap="round"><g transform="translate(2002.6948900603475 301.2897739570093) rotate(0 -164.32400637273895 67.2509375190171)"><path d="M-2.35 -0.2 C-56.85 23.09, -273.46 114.35, -327.84 137.28 M1.56 -2.78 C-53.25 19.96, -274.79 110.7, -330.21 133.33" stroke="#f08c00" stroke-width="1" fill="none"></path></g><g transform="translate(2002.6948900603475 301.2897739570093) rotate(0 -164.32400637273895 67.2509375190171)"><path d="M-308.29 112.8 C-311.57 116.75, -317.4 126.09, -333.98 133.79 M-309.93 112.09 C-315.7 119.41, -319.73 125.78, -328.56 131.88" stroke="#f08c00" stroke-width="1" fill="none"></path></g><g transform="translate(2002.6948900603475 301.2897739570093) rotate(0 -164.32400637273895 67.2509375190171)"><path d="M-300.52 131.8 C-305.56 130.48, -313.49 134.7, -333.98 133.79 M-302.16 131.09 C-310.56 132.84, -316.93 133.51, -328.56 131.88" stroke="#f08c00" stroke-width="1" fill="none"></path></g></g><mask></mask><g stroke-linecap="round"><g transform="translate(2379.9559721981805 287.8373593890865) rotate(0 118.90813014218747 106.95141773741034)"><path d="M1.84 -1.93 C41.74 34.13, 199.31 180.19, 238.42 215.83 M-0.61 3.2 C38.98 38.57, 195.5 176.98, 235.96 212.15" stroke="#f08c00" stroke-width="1" fill="none"></path></g><g transform="translate(2379.9559721981805 287.8373593890865) rotate(0 118.90813014218747 106.95141773741034)"><path d="M205.25 200.67 C218.87 200.5, 220.69 207.99, 238.7 208.64 M207.25 201.35 C218.76 203.85, 225.27 209.81, 235.72 213.83" stroke="#f08c00" stroke-width="1" fill="none"></path></g><g transform="translate(2379.9559721981805 287.8373593890865) rotate(0 118.90813014218747 106.95141773741034)"><path d="M218.79 185.25 C228.77 189.33, 227.01 200.9, 238.7 208.64 M220.79 185.93 C227.89 193.31, 230.03 204.24, 235.72 213.83" stroke="#f08c00" stroke-width="1" fill="none"></path></g></g><mask></mask><g stroke-linecap="round"><g transform="translate(2377.7120563630924 294.2521908122487) rotate(0 115.9450446153578 208.16113577096257)"><path d="M1.21 2.11 C39.85 70.71, 195.25 343.3, 233.47 411.78 M-1.58 0.79 C36.67 69.87, 193.75 347.63, 232.01 415.54" stroke="#f08c00" stroke-width="1" fill="none"></path></g><g transform="translate(2377.7120563630924 294.2521908122487) rotate(0 115.9450446153578 208.16113577096257)"><path d="M212.24 398.07 C217.74 400.71, 227.59 412.5, 233.88 414.76 M209.07 395.13 C219 404.65, 225.52 411.87, 233.14 414.83" stroke="#f08c00" stroke-width="1" fill="none"></path></g><g transform="translate(2377.7120563630924 294.2521908122487) rotate(0 115.9450446153578 208.16113577096257)"><path d="M230.11 387.99 C229.23 394.38, 232.7 409.78, 233.88 414.76 M226.94 385.04 C230.27 398.66, 230.09 409.67, 233.14 414.83" stroke="#f08c00" stroke-width="1" fill="none"></path></g></g><mask></mask><g stroke-linecap="round"><g transform="translate(2002.2001050151976 303.1186949721655) rotate(0 -166.75422791362598 150.6777373032753)"><path d="M2.76 -2.19 C-52.99 48.82, -279.76 252.82, -336.27 303.54 M0.81 2.8 C-53.91 53.16, -275.81 248.7, -331.05 299.07" stroke="#f08c00" stroke-width="1" fill="none"></path></g><g transform="translate(2002.2001050151976 303.1186949721655) rotate(0 -166.75422791362598 150.6777373032753)"><path d="M-320.01 269.51 C-319.31 276.06, -324.69 284.43, -332.06 297.23 M-316.65 274.52 C-322.47 281.29, -324.86 291.99, -330.82 298.64" stroke="#f08c00" stroke-width="1" fill="none"></path></g><g transform="translate(2002.2001050151976 303.1186949721655) rotate(0 -166.75422791362598 150.6777373032753)"><path d="M-306.32 284.8 C-308.6 288, -317.22 292.74, -332.06 297.23 M-302.97 289.81 C-313.38 291.4, -320.45 296.87, -330.82 298.64" stroke="#f08c00" stroke-width="1" fill="none"></path></g></g><mask></mask><g stroke-linecap="round"><g transform="translate(2002.1585986166192 300.57534651906815) rotate(0 -169.17446696909064 250.8040211356584)"><path d="M0.35 -1.28 C-55.71 82.21, -282.2 416.6, -338.7 499.84 M-2.9 4.2 C-57.86 88.18, -278.36 420.29, -333.35 502.88" stroke="#f08c00" stroke-width="1" fill="none"></path></g><g transform="translate(2002.1585986166192 300.57534651906815) rotate(0 -169.17446696909064 250.8040211356584)"><path d="M-328.12 470.95 C-329.58 477.31, -333.54 482.68, -336.28 500.81 M-327.85 473.8 C-326.94 483.78, -330.3 496.03, -335.18 502.72" stroke="#f08c00" stroke-width="1" fill="none"></path></g><g transform="translate(2002.1585986166192 300.57534651906815) rotate(0 -169.17446696909064 250.8040211356584)"><path d="M-311.03 482.31 C-316.1 486.25, -323.76 489.17, -336.28 500.81 M-310.76 485.15 C-316.36 491.18, -326 499.25, -335.18 502.72" stroke="#f08c00" stroke-width="1" fill="none"></path></g></g><mask></mask></svg>